<svg width="16" height="16" viewBox="0 0 16 16" fill="none" xmlns="http://www.w3.org/2000/svg">
<path d="M12.2718 15.5529L12.271 15.5524L8.19311 13.3044L8 13.198L7.80689 13.3044L3.72958 15.5521C3.72945 15.5522 3.72933 15.5522 3.7292 15.5523C3.6646 15.5877 3.59341 15.6028 3.52319 15.5974C3.45278 15.5921 3.3834 15.5661 3.32307 15.5202C3.26254 15.4741 3.21315 15.4093 3.18287 15.3315C3.15259 15.2537 3.14337 15.1677 3.1569 15.0837C3.15691 15.0835 3.15693 15.0834 3.15695 15.0833L3.93529 10.323L3.96794 10.1233L3.82643 9.97866L0.527264 6.60691C0.527218 6.60687 0.527173 6.60682 0.527128 6.60677C0.472483 6.55078 0.43201 6.4779 0.412626 6.39543L0.0232352 6.48694L0.412626 6.39543C0.393211 6.31282 0.396269 6.226 0.421231 6.14546C0.446168 6.06499 0.491316 5.99593 0.549146 5.94477C0.606777 5.89379 0.674767 5.86243 0.744865 5.85167C0.74489 5.85167 0.744914 5.85166 0.744939 5.85166L5.30407 5.15719L5.51489 5.12507L5.60573 4.93213L7.63809 0.615364C7.67781 0.548514 7.73156 0.495019 7.79298 0.458176L7.58725 0.115144L7.79299 0.458176C7.85743 0.419523 7.92886 0.4 8.0004 0.4C8.07194 0.4 8.14337 0.419523 8.20782 0.458176C8.26924 0.495015 8.32297 0.548501 8.3627 0.615337L10.3942 4.93207L10.4851 5.12507L10.6959 5.15719L15.2551 5.85166C15.2551 5.85167 15.2552 5.85167 15.2552 5.85168C15.3253 5.86245 15.3932 5.89381 15.4509 5.94477C15.5087 5.99593 15.5538 6.06499 15.5788 6.14546C15.6037 6.22601 15.6068 6.31282 15.5874 6.39542L15.9768 6.48694L15.5874 6.39543C15.568 6.47791 15.5275 6.5508 15.4729 6.60679C15.4728 6.60683 15.4728 6.60687 15.4727 6.60691L12.1736 9.97866L12.032 10.1233L12.0647 10.323L12.844 15.084C12.844 15.084 12.844 15.084 12.844 15.0841C12.8547 15.1496 12.8516 15.2168 12.835 15.2807C12.8185 15.3446 12.7892 15.4026 12.7502 15.4511L13.062 15.7017L12.7502 15.4511C12.7113 15.4995 12.664 15.537 12.6124 15.5622L12.7878 15.9217L12.6123 15.5622C12.5609 15.5873 12.5057 15.5999 12.4506 15.6C12.3892 15.5998 12.328 15.584 12.2718 15.5529Z" stroke="#A7ACAF" stroke-width="0.8"/>
</svg>
